<?xml version="1.0" encoding="utf-8"?>
<!-- Generator: Adobe Illustrator 22.1.0, SVG Export Plug-In . SVG Version: 6.00 Build 0)  -->
<svg version="1.1" id="Layer_1" xmlns="http://www.w3.org/2000/svg" xmlns:xlink="http://www.w3.org/1999/xlink" x="0px" y="0px"
	 viewBox="0 0 1108.3 224.7" style="enable-background:new 0 0 1108.3 224.7;" xml:space="preserve">
<style type="text/css">
	.st0{fill:url(#SVGID_1_);}
	.st1{fill:url(#SVGID_2_);}
	.st2{fill:#333333;}
</style>
<g>
	<linearGradient id="SVGID_1_" gradientUnits="userSpaceOnUse" x1="4.6161" y1="119.1161" x2="102.7919" y2="20.9402">
		<stop  offset="0" style="stop-color:#EE0979"/>
		<stop  offset="0.123" style="stop-color:#EF1272"/>
		<stop  offset="0.3236" style="stop-color:#F22A5F"/>
		<stop  offset="0.5767" style="stop-color:#F65240"/>
		<stop  offset="0.8699" style="stop-color:#FC8915"/>
		<stop  offset="0.9996" style="stop-color:#FFA300"/>
	</linearGradient>
	<path class="st0" d="M119,62.6c0.1,10.3-2.4,20.4-7.4,29.5c-9.8,17.7-28.8,28.6-49.1,28.4H45v-21h17.5c13,0.2,24.7-6.7,30.9-18.1
		c3.2-5.8,4.8-12.3,4.7-18.9c0.1-6.6-1.6-13.2-4.9-19C90.1,38,85.5,33.4,80,30.2c-5.8-3.3-12.3-5-19-4.9c-6.6-0.1-13.2,1.6-18.9,4.9
		c-5.6,3.2-10.2,7.8-13.3,13.5c-3.3,5.8-5,12.3-4.9,19v15.2l0,0v42.7H3v-58C3,52.4,5.5,42.1,10.6,33c4.9-8.7,12.1-16,20.9-21
		C40.5,7,50.6,4.4,61,4.5C71.3,4.4,81.5,7,90.5,12.1c8.7,5,15.9,12.2,20.9,21C116.5,42.1,119.1,52.3,119,62.6z"/>
	<linearGradient id="SVGID_2_" gradientUnits="userSpaceOnUse" x1="4.5383" y1="119.0383" x2="102.7142" y2="20.8625">
		<stop  offset="0" style="stop-color:#EE0979"/>
		<stop  offset="0.123" style="stop-color:#EF1272"/>
		<stop  offset="0.3236" style="stop-color:#F22A5F"/>
		<stop  offset="0.5767" style="stop-color:#F65240"/>
		<stop  offset="0.8699" style="stop-color:#FC8915"/>
		<stop  offset="0.9996" style="stop-color:#FFA300"/>
	</linearGradient>
	<path class="st1" d="M45,62.5v16h16.5c5.6,0.1,10.8-2.9,13.4-7.8c1.4-2.5,2.1-5.3,2-8.1c0-2.9-0.7-5.7-2.1-8.2
		c-1.4-2.4-3.3-4.4-5.7-5.8c-5.1-2.8-11.2-2.8-16.3,0c-2.4,1.4-4.4,3.4-5.8,5.8C45.7,56.9,45,59.7,45,62.5z"/>
</g>
<g>
	<path class="st2" d="M523.9,144c2.9,1.6,5.4,4.1,7,7c3.4,6.1,3.4,13.6,0,19.7c-1.7,2.9-4.1,5.3-7,6.9c-6.1,3.3-13.5,3.4-19.6,0.1
		c-2.9-1.6-5.3-3.9-7-6.8c-1.7-2.9-2.6-6.3-2.6-9.7v-33.5c0-0.6,0.2-1.1,0.6-1.5c0.4-0.4,0.9-0.6,1.5-0.6c1.1-0.1,2,0.7,2.1,1.8
		c0,0.1,0,0.2,0,0.3v21.6c1.5-2.5,3.7-4.5,6.3-5.8c2.7-1.4,5.8-2.2,8.9-2.1C517.4,141.5,520.9,142.3,523.9,144z M521.8,174.3
		c2.3-1.3,4.2-3.3,5.5-5.6c2.7-4.9,2.7-10.9,0-15.8c-1.3-2.3-3.2-4.2-5.5-5.5c-4.8-2.7-10.7-2.7-15.5,0c-2.3,1.3-4.2,3.2-5.4,5.5
		c-2.6,4.9-2.6,10.8,0,15.8c1.3,2.3,3.1,4.2,5.4,5.6C511.1,177,516.9,177,521.8,174.3z"/>
	<path class="st2" d="M567.1,144c2.6,1.6,4.8,3.9,6.2,6.6c1.5,3,2.3,6.3,2.2,9.6c0,0.5-0.2,1-0.5,1.4c-0.4,0.4-0.9,0.5-1.5,0.5h-29
		c0.1,2.6,0.8,5.1,2.2,7.3c1.3,2.1,3,3.8,5.2,5c2.2,1.2,4.7,1.8,7.3,1.8c1.9,0,3.7-0.3,5.4-0.9c1.6-0.5,3.1-1.3,4.3-2.4
		c0.4-0.3,0.9-0.5,1.5-0.6c1-0.1,1.9,0.6,2,1.6c0.1,0.6-0.2,1.2-0.6,1.6c-1.7,1.5-3.7,2.6-5.8,3.3c-2.2,0.8-4.5,1.3-6.8,1.3
		c-3.4,0.1-6.8-0.8-9.7-2.5c-2.8-1.6-5.1-4-6.7-6.9c-1.7-3-2.5-6.5-2.4-9.9c-0.1-3.5,0.7-6.9,2.2-10c1.4-2.8,3.6-5.2,6.3-6.9
		c2.8-1.7,6-2.5,9.2-2.4C561.3,141.5,564.4,142.4,567.1,144z M549,149.1c-2.5,2.5-4.1,5.9-4.4,9.5h26.9c-0.2-3.6-1.6-6.9-4.2-9.5
		c-2.5-2.4-5.8-3.7-9.3-3.6C554.7,145.4,551.4,146.7,549,149.1z"/>
	<path class="st2" d="M614.5,143.6c0,0.3-0.1,0.7-0.3,1L591,195c-0.4,0.8-0.9,1.2-1.6,1.2c-0.3,0-0.7-0.1-1-0.2
		c-0.9-0.4-1.3-0.9-1.3-1.6c0-0.3,0.1-0.7,0.3-1l7-14.9c-0.1-0.2-0.2-0.3-0.3-0.5l-15.2-33.2c-0.2-0.3-0.3-0.7-0.3-1.1
		c0-0.7,0.5-1.4,1.2-1.6c0.3-0.2,0.7-0.3,1.1-0.3c0.7,0,1.4,0.5,1.6,1.2l14,30.7l14.1-30.6c0.4-0.8,1-1.2,1.6-1.2
		c0.3,0,0.7,0.1,1,0.2C614.1,142.4,614.5,142.9,614.5,143.6z"/>
	<path class="st2" d="M626.1,177.7c-2.9-1.6-5.4-4-7-6.9c-3.4-6.1-3.4-13.6,0-19.7c1.6-2.9,4.1-5.4,7-7c6.1-3.4,13.6-3.4,19.7,0
		c2.9,1.7,5.3,4.1,7,7c3.4,6.1,3.4,13.6,0,19.7c-1.6,2.9-4,5.3-7,6.9C639.7,181,632.2,181,626.1,177.7z M643.7,174.3
		c2.3-1.3,4.2-3.2,5.4-5.5c2.6-4.9,2.6-10.8,0-15.8c-1.3-2.3-3.1-4.2-5.4-5.6c-7.2-4.3-16.6-1.9-20.8,5.3c-0.1,0.1-0.1,0.2-0.2,0.3
		c-2.7,4.9-2.7,10.9,0,15.8c1.3,2.3,3.2,4.2,5.5,5.5C633,177,638.9,177,643.7,174.3L643.7,174.3z"/>
	<path class="st2" d="M690.6,143.5c2.6,1.4,4.8,3.5,6.2,6.1c1.6,2.9,2.3,6.2,2.2,9.5v18.6c0,0.6-0.2,1.1-0.6,1.5
		c-0.8,0.8-2.2,0.8-3,0c-0.4-0.4-0.6-0.9-0.6-1.5v-18.6c0-4.4-1.2-7.7-3.7-10c-2.6-2.4-6.1-3.6-9.7-3.5c-2.3,0-4.6,0.5-6.7,1.4
		c-1.9,0.9-3.5,2.2-4.7,3.9c-1.1,1.6-1.7,3.6-1.7,5.6v21.2c0,0.5-0.2,1.1-0.5,1.5c-0.4,0.4-1,0.6-1.5,0.6c-0.6,0-1.1-0.2-1.5-0.6
		c-0.4-0.4-0.6-0.9-0.6-1.5V144c0-0.6,0.2-1.1,0.6-1.5c0.4-0.4,0.9-0.6,1.5-0.6c0.6,0,1.1,0.2,1.5,0.6c0.4,0.4,0.6,1,0.5,1.5v3.6
		c1.5-1.9,3.5-3.5,5.8-4.5c2.3-1.1,4.8-1.7,7.4-1.6C684.7,141.4,687.8,142.1,690.6,143.5z"/>
	<path class="st2" d="M745.5,126.3c0.4,0.4,0.6,1,0.5,1.5v33.4c0,3.4-0.9,6.7-2.6,9.7c-1.7,2.9-4.1,5.2-7,6.8
		c-6.1,3.3-13.5,3.3-19.6-0.1c-2.9-1.6-5.3-4-7-6.9c-3.4-6.1-3.4-13.6,0-19.7c1.7-2.9,4.1-5.3,7-7c3-1.7,6.4-2.6,9.9-2.5
		c3.1,0,6.1,0.7,8.9,2.1c2.6,1.3,4.7,3.3,6.3,5.8v-21.5c0-0.6,0.2-1.1,0.6-1.5c0.4-0.4,0.9-0.6,1.5-0.6
		C744.5,125.7,745.1,125.9,745.5,126.3z M734.5,174.3c2.3-1.3,4.2-3.3,5.4-5.6c2.6-4.9,2.6-10.8,0-15.8c-1.3-2.3-3.1-4.2-5.4-5.5
		c-4.8-2.7-10.7-2.7-15.5,0c-2.3,1.3-4.2,3.2-5.5,5.5c-2.7,4.9-2.7,10.9,0,15.8c1.3,2.3,3.2,4.2,5.5,5.6
		C723.8,177,729.7,177,734.5,174.3z"/>
	<path class="st2" d="M783.4,177.7c-2.9-1.6-5.3-4-7-6.9c-3.4-6.1-3.4-13.6,0-19.7c1.6-2.9,4.1-5.4,7-7c6.1-3.4,13.6-3.4,19.7,0
		c2.9,1.6,5.4,4.1,7,7c3.4,6.1,3.4,13.6,0,19.7c-1.6,2.9-4.1,5.3-7,6.9C797,181,789.6,181,783.4,177.7z M801.1,174.3
		c2.3-1.3,4.2-3.2,5.4-5.5c2.6-4.9,2.6-10.8,0-15.8c-1.3-2.3-3.1-4.2-5.4-5.6c-7.2-4.3-16.6-1.9-20.8,5.3c-0.1,0.1-0.1,0.2-0.2,0.3
		c-2.7,4.9-2.7,10.9,0,15.8c1.3,2.3,3.2,4.2,5.5,5.5C790.4,177,796.2,177,801.1,174.3L801.1,174.3z"/>
	<path class="st2" d="M843,143.8c0,0.2,0,0.4-0.1,0.6c-0.1,0.4-0.3,0.8-0.7,1.1c-0.4,0.2-0.8,0.3-1.2,0.3c-0.5,0-1.1-0.1-1.6-0.1
		c-0.6-0.1-1.1-0.1-1.7-0.1c-2.1,0-4.3,0.5-6.2,1.5c-1.7,0.9-3.2,2.3-4.2,4c-1,1.7-1.5,3.7-1.5,5.7v21c0,0.5-0.2,1.1-0.5,1.5
		c-0.8,0.8-2.1,0.8-3,0c-0.4-0.4-0.6-0.9-0.6-1.5V144c0-0.6,0.2-1.1,0.6-1.5c0.9-0.7,2.1-0.7,3,0c0.4,0.4,0.6,1,0.5,1.5v4.3
		c1.3-2.1,3-3.8,5.1-5c2.1-1.2,4.4-1.8,6.8-1.8C841.2,141.5,843,142.3,843,143.8z"/>
	<path class="st2" d="M883.9,126.3c0.4,0.4,0.6,1,0.5,1.5v33.4c0,3.4-0.9,6.7-2.6,9.7c-1.7,2.9-4.1,5.2-7,6.8
		c-6.1,3.3-13.5,3.3-19.6-0.1c-2.9-1.6-5.3-4-7-6.9c-3.4-6.1-3.4-13.6,0-19.7c1.6-2.9,4.1-5.4,7-7c3-1.7,6.4-2.6,9.9-2.5
		c3.1,0,6.2,0.7,8.9,2.1c2.6,1.3,4.7,3.3,6.3,5.8v-21.5c0-0.6,0.2-1.1,0.6-1.5C881.7,125.6,883,125.6,883.9,126.3L883.9,126.3z
		 M872.9,174.3c2.3-1.3,4.2-3.3,5.4-5.6c2.6-4.9,2.6-10.8,0-15.8c-1.3-2.3-3.2-4.2-5.4-5.5c-4.8-2.7-10.7-2.7-15.5,0
		c-2.3,1.3-4.2,3.2-5.5,5.5c-2.7,4.9-2.7,10.9,0,15.8C856.2,176,865.6,178.5,872.9,174.3L872.9,174.3z"/>
	<path class="st2" d="M896.6,133c-0.6-0.6-0.9-1.5-0.9-2.3c0-0.9,0.3-1.8,1-2.4c0.6-0.5,1.4-0.8,2.3-0.8c0.8,0,1.6,0.3,2.2,0.8
		c0.6,0.6,1,1.5,0.9,2.4c0,1.8-1.4,3.2-3.1,3.3c0,0-0.1,0-0.1,0C898,134,897.2,133.7,896.6,133z M897.4,179.2
		c-0.4-0.4-0.6-0.9-0.6-1.5V144c0-0.6,0.2-1.1,0.6-1.5c0.4-0.4,0.9-0.6,1.5-0.6c1.1-0.1,2,0.7,2.1,1.8c0,0.1,0,0.2,0,0.3v33.7
		c0,0.6-0.2,1.1-0.6,1.5c-0.4,0.4-1,0.6-1.5,0.6C898.4,179.8,897.8,179.6,897.4,179.2L897.4,179.2z"/>
	<path class="st2" d="M939.8,143.5c2.6,1.4,4.8,3.5,6.2,6.1c1.6,2.9,2.3,6.2,2.2,9.5v18.6c0,0.6-0.2,1.1-0.6,1.5
		c-0.8,0.8-2.2,0.8-3,0c-0.4-0.4-0.6-0.9-0.6-1.5v-18.6c0-4.4-1.2-7.7-3.7-10c-2.6-2.4-6.1-3.6-9.7-3.5c-2.3,0-4.6,0.5-6.7,1.4
		c-1.9,0.9-3.5,2.2-4.7,3.9c-1.1,1.6-1.7,3.6-1.7,5.6v21.2c0,0.5-0.2,1.1-0.5,1.5c-0.4,0.4-1,0.6-1.5,0.6c-0.6,0-1.1-0.2-1.5-0.6
		c-0.4-0.4-0.6-0.9-0.6-1.5V144c0-0.6,0.2-1.1,0.6-1.5c0.4-0.4,0.9-0.6,1.5-0.6c0.6,0,1.1,0.2,1.5,0.6c0.4,0.4,0.6,1,0.5,1.5v3.6
		c1.6-1.9,3.5-3.5,5.8-4.5c2.3-1.1,4.8-1.7,7.4-1.6C933.9,141.4,937,142.1,939.8,143.5z"/>
	<path class="st2" d="M985.8,144c2.9,1.6,5.4,4.1,7,7c1.7,3,2.6,6.4,2.5,9.9v16.8c0,0.5-0.2,1.1-0.5,1.5c-0.8,0.8-2.1,0.8-3,0
		c-0.4-0.4-0.6-0.9-0.6-1.5v-5.4c-1.5,2.5-3.7,4.5-6.3,5.8c-2.7,1.4-5.8,2.2-8.9,2.1c-3.5,0-6.9-0.8-9.9-2.5c-2.9-1.6-5.3-4-7-6.9
		c-3.4-6.1-3.4-13.6,0-19.7c1.6-2.9,4.1-5.4,7-7C972.2,140.7,979.7,140.7,985.8,144L985.8,144z M983.7,174.3
		c2.3-1.3,4.2-3.2,5.4-5.5c2.6-4.9,2.6-10.8,0-15.8c-1.3-2.3-3.2-4.2-5.4-5.6c-7.2-4.3-16.5-1.9-20.8,5.3c-0.1,0.1-0.1,0.2-0.2,0.3
		c-2.7,4.9-2.7,10.9,0,15.8c1.3,2.3,3.2,4.2,5.5,5.5C973,177,978.8,177,983.7,174.3L983.7,174.3z"/>
	<path class="st2" d="M1025.6,143.8c0,0.2,0,0.4-0.1,0.6c-0.1,0.4-0.3,0.8-0.7,1.1c-0.4,0.2-0.8,0.3-1.2,0.3c-0.5,0-1.1-0.1-1.6-0.1
		c-0.6-0.1-1.1-0.1-1.7-0.1c-2.1,0-4.3,0.5-6.2,1.5c-1.8,0.9-3.2,2.3-4.2,4c-1,1.7-1.5,3.7-1.5,5.7v21c0,0.6-0.2,1.1-0.6,1.5
		c-0.4,0.4-1,0.6-1.5,0.6c-0.6,0-1.1-0.2-1.5-0.6c-0.4-0.4-0.6-0.9-0.6-1.5V144c0-0.6,0.2-1.1,0.6-1.5c0.4-0.4,0.9-0.6,1.5-0.6
		c1.1-0.1,2,0.7,2.1,1.8c0,0.1,0,0.2,0,0.3v4.3c1.3-2.1,3-3.8,5.1-5c2.1-1.2,4.4-1.8,6.8-1.8
		C1023.8,141.5,1025.6,142.3,1025.6,143.8z"/>
	<path class="st2" d="M1064.6,143.6c0,0.3-0.1,0.7-0.3,1l-23.2,50.4c-0.4,0.8-0.9,1.2-1.6,1.2c-0.3,0-0.7-0.1-1-0.2
		c-0.9-0.4-1.3-0.9-1.3-1.6c0-0.3,0.1-0.7,0.3-1l6.9-14.9c-0.1-0.2-0.2-0.3-0.3-0.5l-15.2-33.2c-0.2-0.3-0.3-0.7-0.3-1.1
		c0-0.7,0.5-1.4,1.2-1.6c0.3-0.2,0.7-0.3,1.1-0.3c0.7,0,1.4,0.5,1.6,1.2l14,30.7l14.1-30.6c0.4-0.8,0.9-1.2,1.6-1.2
		c0.3,0,0.7,0.1,1,0.2C1064.1,142.4,1064.6,142.9,1064.6,143.6z"/>
	<path class="st2" d="M728,96.7c-4.7-1.6-8.9-4.3-12.3-7.9c-0.8-0.8-1.3-1.9-1.3-3.1c0-1.6,0.8-3.1,2.1-4c1-0.8,2.1-1.2,3.3-1.2
		c1.5,0,2.9,0.7,3.9,1.9c2.3,2.6,5.2,4.6,8.5,5.7c3.7,1.4,7.7,2.1,11.7,2c6.2,0,10.9-1.1,14-3.2c2.9-1.8,4.8-5,4.8-8.4
		c0-3.2-1.6-5.9-4.7-8s-8.1-3.7-14.8-4.8c-8.7-1.4-15.3-3.9-19.6-7.4c-4.3-3.5-6.5-7.8-6.5-12.8c0-6.5,2.5-11.5,7.5-15.1
		s11.3-5.3,18.9-5.3c5.3-0.1,10.5,0.9,15.4,3c4.2,1.9,7.8,4.8,10.5,8.4c0.6,0.9,1,1.9,1.1,3c0,1.5-0.8,2.9-2.1,3.6
		c-0.8,0.5-1.6,0.7-2.5,0.7c-1.8,0-3.5-0.7-4.7-2c-4.4-5-10.3-7.5-17.9-7.5c-4.9,0-8.8,1-11.8,3s-4.4,4.5-4.4,7.5
		c0,3.1,1.5,6,4.2,7.6c2.8,1.9,7.7,3.5,14.7,4.6c9.5,1.6,16.3,4.2,20.4,7.8c4,3.3,6.2,8.3,6.1,13.4c0.1,4-1.2,7.9-3.7,11
		c-2.7,3.4-6.2,6-10.2,7.5c-4.7,1.9-9.8,2.8-14.9,2.7C738.5,99.5,733.1,98.6,728,96.7z"/>
	<path class="st2" d="M398.2,30.1c0,0.8-0.2,1.7-0.5,2.4l-40.5,89c-0.8,2-2.1,3.1-3.9,3.1c-0.8,0-1.7-0.2-2.4-0.5
		c-2-0.8-3.1-2.1-3.1-4c0-0.8,0.2-1.7,0.5-2.4l10.4-23.1v-0.1L329,32.6c-0.4-0.8-0.5-1.6-0.5-2.4c0-1.8,1.2-3.5,2.9-4
		c0.8-0.4,1.6-0.5,2.4-0.5c1.8,0,3.4,1.1,4,2.8l26.1,55l24.9-54.8c0.9-2,2.2-2.9,4-2.9c0.8,0,1.7,0.2,2.4,0.5
		C397.2,27,398.2,28.3,398.2,30.1z"/>
	<path class="st2" d="M567.4,29.7c5.1,3.1,9.2,7.5,11.8,12.8c2.9,5.8,4.3,12.1,4.2,18.6c0.1,1.3-0.4,2.5-1.3,3.4
		c-0.9,0.9-2.2,1.3-3.5,1.3h-54c0.7,7.3,3.6,13.3,8.6,17.8s11.2,6.8,18.7,6.8c3.3,0,6.6-0.6,9.7-1.7c2.8-0.9,5.5-2.3,7.8-4.2
		c1-0.8,2.3-1.3,3.6-1.3c1.1,0,2.1,0.4,2.9,1.1c1.1,0.9,1.7,2.2,1.7,3.6c0,1.2-0.6,2.3-1.5,3.1c-3.3,2.7-7.2,4.8-11.2,6.2
		c-10.6,4-22.3,3.1-32.2-2.3c-5.5-3.1-10.1-7.7-13.2-13.3c-3.2-5.9-4.8-12.5-4.7-19.2c-0.1-6.7,1.4-13.3,4.5-19.3
		c2.8-5.5,7.1-10.1,12.4-13.2c5.5-3.2,11.8-4.9,18.1-4.8C556,25,562.1,26.6,567.4,29.7z M533,40.6c-4.5,4.2-7.2,9.7-8.2,16.6h48.9
		c-0.7-6.9-3.2-12.4-7.5-16.6c-4.3-4.2-9.8-6.3-16.5-6.3C543.1,34.3,537.4,36.4,533,40.6L533,40.6z"/>
	<path class="st2" d="M832.5,29.7c5.1,3.1,9.2,7.5,11.8,12.8c2.9,5.8,4.3,12.1,4.2,18.6c0.1,1.3-0.4,2.5-1.4,3.4
		c-0.9,0.9-2.2,1.3-3.5,1.3h-54c0.5,6.8,3.5,13.1,8.5,17.7c5,4.6,11.2,6.8,18.7,6.8c3.3,0,6.6-0.6,9.7-1.7c2.8-0.9,5.5-2.3,7.8-4.2
		c1-0.8,2.3-1.3,3.6-1.3c1.1,0,2.1,0.4,2.9,1.1c1.1,0.9,1.7,2.2,1.7,3.6c0,1.2-0.5,2.3-1.4,3.1c-3.3,2.7-7.2,4.8-11.2,6.2
		c-10.6,4-22.3,3.1-32.2-2.3c-5.6-3.1-10.1-7.7-13.2-13.2c-3.2-5.9-4.9-12.5-4.8-19.2c-0.1-6.7,1.4-13.3,4.5-19.3
		c2.8-5.5,7.1-10.1,12.4-13.2c5.5-3.2,11.8-4.9,18.1-4.8C821.1,25,827.2,26.6,832.5,29.7z M798.1,40.6c-4.5,4.2-7.2,9.7-8.2,16.6h49
		c-0.7-6.9-3.2-12.4-7.5-16.6s-9.8-6.3-16.5-6.3C808.2,34.3,802.6,36.4,798.1,40.6z"/>
	<path class="st2" d="M945.1,96.7c-4.7-1.6-8.9-4.3-12.3-7.9c-0.8-0.8-1.3-1.9-1.3-3.1c0-1.6,0.8-3.1,2.1-4c0.9-0.8,2.1-1.2,3.3-1.2
		c1.5,0,2.9,0.7,3.9,1.9c2.3,2.6,5.2,4.6,8.5,5.8c3.7,1.4,7.7,2.1,11.7,2c6.2,0,10.9-1.1,14-3.2c2.9-1.8,4.7-5,4.8-8.4
		c0-3.2-1.6-5.9-4.7-8c-3.1-2.1-8.1-3.7-14.8-4.8c-8.7-1.4-15.3-3.9-19.6-7.4s-6.5-7.8-6.5-12.8c0-6.5,2.5-11.5,7.5-15.1
		s11.3-5.3,18.9-5.3c5.3-0.1,10.5,0.9,15.3,3c4.2,1.9,7.8,4.8,10.6,8.4c0.6,0.9,1,1.9,1.1,3c0,1.5-0.8,2.9-2.1,3.6
		c-0.8,0.5-1.6,0.7-2.5,0.7c-1.8,0-3.5-0.7-4.7-2c-4.4-5-10.3-7.5-17.9-7.5c-4.9,0-8.8,1-11.8,3s-4.4,4.5-4.4,7.5
		c0,3.1,1.5,6,4.1,7.6c2.8,1.9,7.7,3.5,14.7,4.6c9.5,1.6,16.3,4.2,20.4,7.8c4,3.3,6.2,8.2,6.2,13.4c0.1,4-1.2,7.9-3.7,11
		c-2.7,3.4-6.2,6-10.2,7.5c-4.7,1.8-9.8,2.8-14.8,2.7C955.6,99.5,950.2,98.6,945.1,96.7z"/>
	<path class="st2" d="M1048.5,29.7c5.1,3.1,9.2,7.5,11.8,12.8c2.9,5.8,4.3,12.1,4.2,18.6c0.1,1.3-0.4,2.5-1.3,3.4
		c-0.9,0.9-2.2,1.3-3.5,1.3h-54c0.5,6.8,3.5,13.1,8.5,17.7c5,4.6,11.2,6.8,18.7,6.8c3.3,0,6.6-0.6,9.7-1.7c2.9-0.9,5.5-2.3,7.8-4.2
		c1-0.8,2.3-1.3,3.6-1.3c1.1,0,2.1,0.4,2.9,1.1c1.1,0.9,1.7,2.2,1.7,3.6c0,1.2-0.5,2.4-1.5,3.1c-3.3,2.7-7.1,4.8-11.2,6.2
		c-10.6,4-22.3,3.1-32.2-2.3c-5.5-3.1-10.1-7.7-13.2-13.2c-3.2-5.9-4.9-12.5-4.8-19.2c-0.1-6.7,1.4-13.3,4.5-19.3
		c2.8-5.5,7.1-10.1,12.4-13.2c5.5-3.2,11.8-4.9,18.1-4.8C1037.2,25,1043.2,26.6,1048.5,29.7z M1014.2,40.6
		c-4.5,4.2-7.2,9.7-8.2,16.6h48.9c-0.7-6.9-3.2-12.4-7.5-16.6s-9.8-6.3-16.4-6.3C1024.2,34.3,1018.6,36.4,1014.2,40.6L1014.2,40.6z"
		/>
	<path class="st2" d="M707.9,90.1c0.9,1,1.4,2.4,1.3,3.8c0,1.4-0.6,2.7-1.6,3.7c-1.1,1-2.5,1.5-4,1.5h-2.8
		c-9,0.1-17.3-4.8-21.5-12.7c-2.1-4.1-3.2-8.6-3.1-13.2V34.7h-8.7c-1.3,0.1-2.5-0.4-3.4-1.3c-0.8-0.8-1.3-2-1.3-3.1
		c0-1.2,0.4-2.4,1.3-3.3c0.9-0.9,2.1-1.3,3.4-1.3h8.7v-18c-0.1-1.4,0.5-2.7,1.4-3.8c1-1,2.3-1.5,3.7-1.5c2.8-0.1,5.1,2,5.2,4.8
		c0,0.1,0,0.3,0,0.4v18h15.1c1.3-0.1,2.5,0.4,3.4,1.3c0.9,0.9,1.3,2.1,1.3,3.3c0,1.2-0.4,2.3-1.3,3.1c-0.9,0.9-2.1,1.3-3.4,1.3
		h-15.1v38.4c-0.2,4.1,1.3,8.1,4,11.2c2.6,2.9,6.4,4.5,10.3,4.3h3.6C705.7,88.5,707,89.1,707.9,90.1z"/>
	<path class="st2" d="M659.8,93.7c0,2.8-2.2,5.2-5,5.2c-0.1,0-0.2,0-0.2,0c-1.4,0.1-2.7-0.4-3.7-1.4c-1-1-1.5-2.4-1.4-3.8V57.7
		c0-8-2.1-14.1-6.2-18.3s-9.7-6.2-16.7-6.2c-6.9,0-12.4,2.1-16.5,6.2s-6.2,10.3-6.2,18.3v36.1c0,1.4-0.5,2.7-1.5,3.7
		c-1,1-2.4,1.6-3.8,1.5c-1.4,0.1-2.7-0.4-3.7-1.4c-1-1-1.5-2.4-1.4-3.8V56.6c0-7,1.4-13.1,4.2-18.1c2.7-4.9,6.8-8.9,11.7-11.4
		c10.9-5.2,23.6-5.2,34.6,0c5,2.6,9.1,6.6,11.8,11.5c2.8,5,4.3,11.1,4.3,18.1V93.7z"/>
	<path class="st2" d="M494.7,94c-0.1,1.4,0.5,2.7,1.5,3.7c1,0.9,2.4,1.4,3.8,1.4c2.7,0.2,4.9-1.9,5.1-4.5c0-0.2,0-0.4,0-0.6V55.5
		c0.1-5.5-1-11-3.4-16c-2.1-4.4-5.4-8.1-9.5-10.6c-4.2-2.5-9.1-3.8-14-3.7c-4.9-0.1-9.7,1.1-14,3.3c-4.1,2.2-7.6,5.4-10.1,9.4
		c-2.2-3.9-5.4-7.1-9.3-9.3c-4-2.3-8.6-3.4-13.2-3.3H428c-4.9-0.1-9.8,1.2-14,3.7c-4.1,2.6-7.4,6.2-9.5,10.6c-2.4,5-3.5,10.5-3.4,16
		v38.1l-0.1,0.4c-0.1,1.4,0.5,2.7,1.5,3.7l0.1,0.1c1,0.9,2.2,1.4,3.5,1.3h0.1c1.3,0,2.6-0.4,3.5-1.3l0.1-0.1c1-1,1.5-2.3,1.5-3.7
		V55.5c-0.1-3.5,0.6-7,1.9-10.2l0.1-0.2c0-0.1,0.1-0.2,0.1-0.2c3.2-6.3,9.8-10.1,16.8-9.9c4.9-0.2,9.6,1.9,12.8,5.6
		c3.3,3.7,4.9,8.7,4.9,15V94c-0.1,1.4,0.5,2.7,1.5,3.7c1,0.9,2.4,1.4,3.8,1.4c2.7,0.2,4.9-1.8,5.1-4.5c0-0.2,0-0.4,0-0.6V55.2
		c-0.1-6.1,1.6-11,5-14.7s8-5.6,13.6-5.6c4.9-0.2,9.6,1.9,12.8,5.6c3.3,3.7,4.9,8.7,4.9,15L494.7,94z"/>
	<path class="st2" d="M924,93.7c0,2.8-2.2,5.2-5,5.2c-0.1,0-0.2,0-0.2,0c-1.4,0.1-2.7-0.5-3.7-1.4c-1-1-1.5-2.4-1.4-3.8V57.7
		c0-8-2.1-14.1-6.2-18.3s-9.7-6.2-16.7-6.2c-6.9,0-12.4,2.1-16.5,6.2s-6.2,10.3-6.2,18.3v36.1c0,1.4-0.5,2.7-1.5,3.7
		c-1,1-2.4,1.6-3.8,1.5c-1.4,0.1-2.7-0.4-3.7-1.4c-1-1-1.5-2.4-1.4-3.8V56.6c0-7,1.4-13.1,4.2-18.1c2.7-4.9,6.7-8.9,11.7-11.4
		c10.9-5.2,23.6-5.2,34.6,0c5,2.6,9.1,6.6,11.8,11.5c2.8,5,4.3,11.1,4.3,18.1V93.7z"/>
	<path class="st2" d="M242.5,43.4c-3.2-5.6-7.8-10.3-13.4-13.4c-11.8-6.5-26.1-6.5-37.8,0c-5.6,3.2-10.2,7.8-13.4,13.4
		c-3.3,5.8-5,12.3-4.9,19v56.9c0,1.4,0.6,2.8,1.5,3.8c1,1,2.3,1.5,3.7,1.5c2.8,0.1,5.1-2,5.2-4.8c0-0.1,0-0.3,0-0.4V99.6h27.9
		c13,0.1,25-6.9,31.2-18.3c3.2-5.8,4.8-12.3,4.8-18.9C247.4,55.8,245.8,49.2,242.5,43.4z M233.8,76.7c-2.3,4.2-5.7,7.6-9.8,10
		c-4.2,2.4-9,3.7-13.8,3.6h-27V62.4c-0.1-5,1.1-9.9,3.6-14.2c7.3-13,23.8-17.6,36.8-10.3c4.3,2.4,7.9,6,10.3,10.3
		c2.4,4.4,3.6,9.3,3.6,14.2C237.4,67.4,236.2,72.3,233.8,76.7z"/>
	<path class="st2" d="M323.8,43.4c-3.2-5.6-7.8-10.3-13.4-13.4c-11.8-6.5-26.1-6.5-37.9,0c-5.6,3.2-10.2,7.8-13.4,13.4
		c-3.3,5.8-5,12.3-4.9,19c-0.1,6.6,1.5,13.1,4.7,18.9c6.3,11.4,18.3,18.4,31.2,18.3h32.1c3.5,0,6.3-2.8,6.3-6.3V62.4
		C328.7,55.8,327,49.2,323.8,43.4z M291.8,90.2h-0.3c-4.9,0.1-9.6-1.2-13.8-3.6c-4.1-2.4-7.5-5.8-9.8-10c-2.4-4.4-3.6-9.3-3.5-14.2
		c-0.1-5,1.1-9.9,3.5-14.2c2.3-4.1,5.7-7.6,9.8-10c4.2-2.5,8.9-3.7,13.8-3.7c9.8-0.1,18.8,5.1,23.5,13.7c2.4,4.4,3.6,9.3,3.5,14.2
		v27.8L291.8,90.2z"/>
</g>
</svg>
